<svg width="85" height="24" viewBox="0 0 85 24" fill="none" xmlns="http://www.w3.org/2000/svg">
<path d="M7.13175 11.2479V15.5161C7.13318 15.9303 7.29828 16.3272 7.59105 16.62C7.88382 16.9129 8.28049 17.0781 8.69453 17.0795H9.77604V19.9845H8.33763C7.17165 19.9845 6.05343 19.5212 5.22896 18.6964C4.40449 17.8716 3.9413 16.7529 3.9413 15.5865V11.2587H2V8.35373H3.9413V5.58398H7.13175V8.35373H9.78144V11.2587L7.13175 11.2479Z" fill="#1D1D18"/>
<path d="M19.3847 8.34375V11.6166C17.3731 11.6166 16.2807 12.731 16.2807 14.4621V19.9962H13.0957V8.34375H16.2699V10.0045C16.6201 9.50026 17.0852 9.08662 17.6268 8.79783C18.1684 8.50904 18.771 8.35339 19.3847 8.34375Z" fill="#1D1D18"/>
<path d="M33.2177 15.1876H24.7009C24.8434 15.7807 25.1857 16.3066 25.6702 16.677C26.1547 17.0474 26.7519 17.2397 27.3614 17.2216C27.8138 17.247 28.2652 17.1582 28.6744 16.9635C29.0835 16.7688 29.4371 16.4743 29.7028 16.1072H33.088C32.6549 17.283 31.8619 18.292 30.822 18.9904C29.782 19.6888 28.5483 20.041 27.2965 19.9967C26.5147 20.0253 25.7353 19.8951 25.0052 19.614C24.2751 19.3329 23.6095 18.9067 23.0486 18.3612C22.4877 17.8158 22.043 17.1622 21.7415 16.4401C21.4399 15.718 21.2878 14.9423 21.2941 14.1597C21.2941 10.8382 23.8681 8.32808 27.2965 8.32808C28.0817 8.29941 28.8646 8.43074 29.5975 8.71409C30.3304 8.99744 30.9981 9.4269 31.56 9.97637C32.1219 10.5258 32.5663 11.1839 32.8662 11.9104C33.166 12.637 33.315 13.417 33.3043 14.203C33.3089 14.5333 33.2799 14.8632 33.2177 15.1876ZM24.7225 13.067H29.8759C29.7251 12.4985 29.3906 11.9958 28.9246 11.6372C28.4586 11.2786 27.8871 11.0842 27.2992 11.0842C26.7113 11.0842 26.1398 11.2786 25.6738 11.6372C25.2078 11.9958 24.8733 12.4985 24.7225 13.067Z" fill="#1D1D18"/>
<path d="M46.8876 12.5795V19.9962H43.6972V13.6506C43.7234 13.3569 43.6859 13.061 43.5874 12.7831C43.4889 12.5052 43.3316 12.2519 43.1263 12.0403C42.9209 11.8288 42.6724 11.664 42.3977 11.5573C42.1229 11.4505 41.8284 11.4043 41.5342 11.4218C41.2279 11.3991 40.9203 11.4419 40.6318 11.5474C40.3433 11.6529 40.0806 11.8186 39.8612 12.0336C39.6417 12.2485 39.4705 12.5078 39.359 12.794C39.2474 13.0803 39.1981 13.3871 39.2143 13.6939V19.9962H36.0293V8.34373H39.2143V9.82599C39.6347 9.34347 40.1569 8.96024 40.7432 8.70393C41.3295 8.44761 41.9653 8.32459 42.6049 8.34373C45.1843 8.34373 46.8876 10.0262 46.8876 12.5795Z" fill="#1D1D18"/>
<path d="M49.8294 10.9297C49.8229 10.4926 49.9471 10.0636 50.1858 9.69746C50.4246 9.33134 50.7671 9.04483 51.1696 8.87458C51.572 8.70434 52.0161 8.65811 52.445 8.74182C52.8739 8.82552 53.268 9.03536 53.577 9.34446C53.886 9.65356 54.0957 10.0479 54.1794 10.4769C54.2631 10.906 54.2169 11.3502 54.0467 11.7529C53.8765 12.1555 53.5901 12.4982 53.2241 12.737C52.8582 12.9758 52.4293 13.1 51.9924 13.0936C51.7071 13.098 51.4239 13.045 51.1595 12.9378C50.8951 12.8306 50.6549 12.6714 50.4531 12.4696C50.2514 12.2678 50.0922 12.0275 49.9851 11.763C49.8779 11.4985 49.825 11.2151 49.8294 10.9297ZM49.8294 17.8108C49.8229 17.3737 49.9471 16.9447 50.1858 16.5786C50.4246 16.2124 50.7671 15.9259 51.1696 15.7557C51.572 15.5854 52.0161 15.5392 52.445 15.6229C52.8739 15.7066 53.268 15.9165 53.577 16.2256C53.886 16.5347 54.0957 16.929 54.1794 17.358C54.2631 17.7871 54.2169 18.2313 54.0467 18.634C53.8765 19.0366 53.5901 19.3793 53.2241 19.6181C52.8582 19.857 52.4293 19.9811 51.9924 19.9747C51.7071 19.9791 51.4239 19.9261 51.1595 19.8189C50.8951 19.7117 50.6549 19.5525 50.4531 19.3507C50.2514 19.1489 50.0922 18.9086 49.9851 18.6441C49.8779 18.3796 49.825 18.0962 49.8294 17.8108Z" fill="#6D28D9"/>
<path d="M69.0486 14.1594C69.0486 17.4809 66.7558 19.9964 63.6789 19.9964C63.0423 20.0045 62.4116 19.8736 61.8307 19.613C61.2499 19.3523 60.7328 18.9681 60.3155 18.4871V19.9964H57.125V4H60.3155V9.83704C60.7328 9.35605 61.2499 8.97184 61.8307 8.71118C62.4116 8.45052 63.0423 8.31966 63.6789 8.32774C66.7558 8.32774 69.0486 10.8378 69.0486 14.1594ZM65.7717 14.1594C65.7621 13.6266 65.5954 13.1085 65.2925 12.6701C64.9897 12.2318 64.5641 11.8927 64.0693 11.6954C63.5745 11.4981 63.0324 11.4515 62.5112 11.5613C61.99 11.6711 61.5128 11.9324 61.1395 12.3126C60.7662 12.6927 60.5135 13.1747 60.4131 13.698C60.3126 14.2213 60.3689 14.7627 60.5749 15.2541C60.7809 15.7455 61.1274 16.1651 61.5709 16.4602C62.0145 16.7553 62.5352 16.9128 63.0679 16.9129C63.4283 16.9174 63.786 16.849 64.1193 16.7116C64.4526 16.5742 64.7546 16.3707 65.0072 16.1135C65.2599 15.8562 65.4578 15.5504 65.5892 15.2146C65.7206 14.8788 65.7826 14.5198 65.7717 14.1594Z" fill="#1D1D18"/>
<path d="M82.9081 15.1876H74.3913C74.5338 15.7807 74.8761 16.3066 75.3606 16.677C75.8451 17.0474 76.4423 17.2397 77.0518 17.2216C77.5041 17.247 77.9556 17.1582 78.3648 16.9635C78.7739 16.7688 79.1276 16.4743 79.3932 16.1072H82.7838C82.3507 17.283 81.5577 18.292 80.5178 18.9904C79.4778 19.6888 78.2441 20.041 76.9923 19.9967C76.2103 20.0252 75.4306 19.8951 74.7002 19.614C73.9699 19.333 73.3039 18.9069 72.7426 18.3615C72.1812 17.8161 71.736 17.1627 71.4339 16.4405C71.1318 15.7184 70.9789 14.9425 70.9845 14.1597C70.9845 10.8382 73.5639 8.32808 76.9923 8.32808C77.7775 8.29941 78.5604 8.43074 79.2933 8.71409C80.0263 8.99744 80.6939 9.4269 81.2558 9.97637C81.8177 10.5258 82.2621 11.1839 82.562 11.9104C82.8618 12.637 83.0108 13.417 83.0001 14.203C83.0029 14.5334 82.9721 14.8633 82.9081 15.1876ZM74.4129 13.067H79.5663C79.4154 12.4985 79.081 11.9958 78.615 11.6372C78.149 11.2786 77.5775 11.0842 76.9896 11.0842C76.4017 11.0842 75.8302 11.2786 75.3642 11.6372C74.8982 11.9958 74.5637 12.4985 74.4129 13.067Z" fill="#1D1D18"/>
</svg>
